# xmcd
#
# Track frame offsets:
#	150
#	16890
#	34627
#	50525
#	66375
#	85213
#	102463
#	124352
#	138868
#	154981
#	174424
#	192899
#	214323
#	232361
#	252340
#	271092
#	287495
#	303355
#	320086
#	336183
#
# Disc length: 4715 seconds
#
# Revision: 3
# Processed by: cddbd v1.5.2PL0 Copyright (c) Steve Scherf et al.
# Submitted via: EasyCDDAExtractor 16.0.6.1
#
DISCID=2d126914
DTITLE=Various Artist - The Hottest R&B Collection - 100% R&B - Vol. 7
DYEAR=2005
DGENRE=Blues
TTITLE0=Ciara ft Petey Pablo - Goodies
TTITLE1=Houston ft Chingy, Nate Dogg and I-20 - I Like That
TTITLE2=Leki - Latin Lover
TTITLE3=N.E.R.D. - Maybe
TTITLE4=Outkast - Roses
TTITLE5=Alicia Keys - If I Ain't Got You
TTITLE6=R. Kelly - Happy People
TTITLE7=Kaye Styles - Watchin' Me
TTITLE8=Beenie Man - King Of The Dancehall
TTITLE9=Xzibit ft Keri Helson - Hey Now (Mean Muggin)
TTITLE10=Terror Squad ft Fat Joe - Lean Back
TTITLE11=Jadakiss ft Mariah Carey - U Make Me Wanna
TTITLE12=Nelly ft Jazze Pha - Na-Nana-Na
TTITLE13=Jill Scott - Whatever
TTITLE14=Usher - Burn
TTITLE15=Christina Millian ft Joe Budden - Whatever U Want
TTITLE16=Fabolous - Breathe
TTITLE17=Rohff and Natty - Le Son Qui Tue
TTITLE18=K-Maro - Crazy
TTITLE19=Nadiya ft Smartzee - Et C'est Parti
EXTD=
EXTT0=
EXTT1=
EXTT2=
EXTT3=
EXTT4=
EXTT5=
EXTT6=
EXTT7=
EXTT8=
EXTT9=
EXTT10=
EXTT11=
EXTT12=
EXTT13=
EXTT14=
EXTT15=
EXTT16=
EXTT17=
EXTT18=
EXTT19=
PLAYORDER=
